<svg xmlns="http://www.w3.org/2000/svg" viewBox="0 0 63.149948 63.15"><path style="line-height:normal;text-indent:0;text-align:start;text-decoration-line:none;text-decoration-style:solid;text-decoration-color:#000000;text-transform:none;block-progression:tb;isolation:auto;mix-blend-mode:normal" d="M10.72 3.42c-.72.1-1.74.64-2.26 1.3-.45.6-.58.94-.66 1.22-.07.07-.07.06-.14.15-.33.4-1.03 1-.96 2.74.04.98.2 1.1.26 1.2 0 .65.1 1.2.2 1.46.15.4.14.5.05.03.23 1.14.52 1.4.72 1.7.2.33.4.6.4.6l-.44-.8c.5 1.32 1 1.8 1.44 2.15.18.4.37.82.97 1.3.1.1.24.1.35.17.15.18.24.42.4.54l-.53-.5c.15.18.36.43.77.75 0 .02.04.03.06.05 0 0 .02 0 .03.02.03.05.04.12.1.16l-.02-.07.14.14h-.07c.1.1.1.06.2.14.2.17.36.43.55.53.12.07.2.02.3.07.1.08.18.17.28.24.38.55.73.95 1.02 1.2.04.08 0 .17.05.25.48.77.9 1.08 1.23 1.23l.3.3c.13.18.26.52.4.66.17.17.54.32.77.47v.03c.37.43.46.52.18.16a3.3 3.3 0 0 0 .42.43c-.17-.14-.14-.2-.27-.4.24.4.3.7.68 1 .54.45.56.42.5.3.08.2.13.35.37.64.17.2.5.53.93.8a3.3 3.3 0 0 0 1.02 1.3c.38.27.53.3.8.42l1.28 1.26a3.3 3.3 0 0 0 .35.3c.05.04.05.07.1.1a3.3 3.3 0 0 0 .14.13c.02 0 .13.2.13.2a3.3 3.3 0 0 0 .56.74l.33.33c-.08.06-.03.05-.1.1a3.3 3.3 0 0 0-.9.62c-.2.2-.14.2-.28.42l-.13.06c-.5.37-.56.44-.2.17a3.3 3.3 0 0 0-.36.3l-.2.2-.45.24.03.02c-.05.05-.12.06-.16.1a3.3 3.3 0 0 0-.47.7 3.3 3.3 0 0 0-.25.23l-.63.63a3.3 3.3 0 0 0-.2.24 3.3 3.3 0 0 0-.22.18l-.53.53.4-.35c-.47.35-.76.9-1.06 1.4-.13.08-.3.27-.46.4-.3.2-.62.35-.86.63-.34.4-.25.44-.35.68-.08.03-.1.04-.17.1-.32.23-.4.47-.66.8l.48-.25-.02.02c-.27.13-.4.2-.52.3l-.08.12a3.3 3.3 0 0 0-.03 0l.06-.1c-.06.06-.22.13-.26.17a3.3 3.3 0 0 0-.37.17c-.3.17-.58.57-.86.93a3.3 3.3 0 0 0-.42.4c-.36.28-.65.52-.82.8l-.08.08a3.3 3.3 0 0 0-1.2 1.08c-.17.15-.4.3-.5.44-.08.08-.07.1-.13.2h-.03a3.3 3.3 0 0 0-2.16 1.65c-.02.05-.32.65-.52.95-.22.17-.36.15-.52.36a3.3 3.3 0 0 0-.2.3 3.3 3.3 0 0 0-.7.4c-.3.22-.62.76-.92 1.3v-.1l-.12.25c-.07.16-.2.17-.25.36v.2l-.07.16c-.14.44-.16 1.06-.16 1.1 0 .02.02-.53.13-.87.04-.14.05-.14.1-.22-.05.24-.06.47-.05.7-.18.94-.2 1.9.1 2.43.23.4.35.42.54.6l.1.16c.17.22.27.32.35.42.02 0 0 0 .02.02a3.3 3.3 0 0 0 1.8 1.23l.93.25a3.3 3.3 0 0 0 1.55.05l.13-.03-.18-.05a3.3 3.3 0 0 0 1.64 0l.46-.12.46-.05a3.3 3.3 0 0 0 .84-.2c1.3-.5 1.8-1 2.15-1.44.4-.18.82-.37 1.3-.98.08-.1.1-.24.17-.36.18-.14.4-.23.53-.4l-.47.54c.16-.15.4-.35.73-.76l.07-.1.04-.03c.05-.04.1-.02.14-.07h-.08c.06-.04.1-.1.16-.15v.08c.1-.1.05-.1.14-.22.16-.18.4-.33.5-.5.07-.13.02-.2.07-.32.1-.1.18-.18.26-.3.5-.36.9-.7 1.16-1 .08-.03.17 0 .24-.04.8-.5 1.1-.9 1.25-1.25l.28-.28c.2-.15.53-.28.68-.43.18-.16.32-.53.48-.75.43-.37.53-.46.18-.2a3.3 3.3 0 0 0 .44-.4c-.16.18-.22.15-.43.28l.02-.03c.4-.22.7-.3 1-.68.4-.5.4-.55.3-.48.2-.1.34-.14.63-.38.2-.17.54-.5.8-.94a3.3 3.3 0 0 0 1.3-1.03c.28-.37.3-.5.42-.8l1.28-1.27a3.3 3.3 0 0 0 .3-.35l.1-.07a3.3 3.3 0 0 0 .1-.15l.22-.13a3.3 3.3 0 0 0 .5-.34c.1.1.22.28.32.37a3.3 3.3 0 0 0 .4.3 3.3 3.3 0 0 0 0 .02v-.03l.03.04.02.02c.18.17.45.54.5.58.07.06-.18-.15-.48-.54.14.27.26.56.47.77a3.3 3.3 0 0 0 .85.6l-.2-.26c.97 1.42 1.68 2.35 1.45 1.76a3.3 3.3 0 0 0 .36.68c.3.45.6.55 1.02.83a3.3 3.3 0 0 0 .33.4h.02c.07.16.02.33.1.46a3.3 3.3 0 0 0 1.86 1.33 3.3 3.3 0 0 0 .1.03c.08.07.37.17.5.27.04.03.04.07.07.1.13.14.3.17.5.3-.12-.1.28.72 1.48 1.66h-.02c-.55-.46-.38-.38-.4-.38 0 0 .05.03.1.1.06.06.13.14.33.32l.1.1c.02 0 .02 0 .03.03.03.03.06.02.1.05.08.06.12.1.28.2l.08.05c.3.64.52.84.72 1a3.3 3.3 0 0 0 .13.18l.13.2c.07.04.04 0 .08.05a3.3 3.3 0 0 0 .08.08c.02.05 0 .12 0 .17.07.15.14.13.2.25.02.12-.02.27.02.38.06.17.15.16.23.3a3.3 3.3 0 0 0 .05.2c.03.06.02.12.04.16a3.3 3.3 0 0 0 .8 1.37l.43.4a3.3 3.3 0 0 0 .8 1.44 3.3 3.3 0 0 0 .46.68c.63.72 1.8 1.16 2.17 1.24.06 0-.14-.06-.12-.06.2.1.3.2.53.26-.17-.1-.15-.04-.38-.28l-.2-.25c.25.18.45.42.64.52h.14c.27.23.37.5.74.64.2.1.25 0 .44.05a3.3 3.3 0 0 0 2.15.1 3.3 3.3 0 0 0 1.9-.87 3.3 3.3 0 0 0 1-.8c.55-.66.82-1.47.9-1.8.1-.36.1-.22-.08.12l-.65.88c.9-.85 1.28-2.72 1.12-3.56-.07-.25-.03-.05-.07-.2 0-.02.03-.06.03-.1 0-.17-.04-.17-.06-.3.03-.16.08-.17.1-.37 0-.07-.06-.17-.06-.24v-.15a3.3 3.3 0 0 0-.64-2.52c.1.14.12.18-.06-.16-.12-.23-.48-.65-.8-1.03a3.3 3.3 0 0 0-.96-1.28c-.1-.44-.16-.9-.47-1.3a3.3 3.3 0 0 0-1.17-.98 3.3 3.3 0 0 0-.6-.86c-.12-.1-.18-.1-.3-.2a3.3 3.3 0 0 0-1.16-1.08c-.1-.05-.5-.36-1.05-.75l-.4-.32c.03.04.1.1.16.2-.3-.5-.87-1.16-1.72-1.5-.1-.04-.13 0-.23-.02-.12-.14-.23-.44-.36-.57l-.14-.1c-.02-.02-.03-.1-.05-.13-.06-.1-.04 0-.1-.1a3.3 3.3 0 0 0-.36-.64c-.23-.32-.73-.52-1.15-.8a3.3 3.3 0 0 0-.02 0l-.74-.74.4.5c-.12-.06-.2-.17-.3-.2-.4-.4-.8-.74-1.35-1.02l.78.83h-.05c-.16-.18-.34-.35-.55-.5a3.3 3.3 0 0 0-.34-.4h-.04l-.04-.05h.02a3.3 3.3 0 0 0-.04-.03l-.13-.14v-.03c-.33-.84-.6-.94-.82-1.12a3.3 3.3 0 0 0-.12-.16c-.03-.03-.1-.17-.14-.2l-.08-.05a3.3 3.3 0 0 0-.23-.23c.35.3.43.6.57.88h-.02c-.18-.42-.4-1.04-.98-1.5l.27.25-1.05-1.06c.47-.3.83-.62 1.08-.9a3.3 3.3 0 0 0 .33-.43c0 .02 0 0-.02.03h-.02l.07-.05c.2-.2.57-.48.6-.52.07-.08-.13.18-.57.5.27-.14.56-.25.77-.46a3.3 3.3 0 0 0 .63-.86l-.26.2c1.43-.96 2.36-1.67 1.76-1.45a3.3 3.3 0 0 0 .68-.35c.45-.3.55-.62.83-1.02a3.3 3.3 0 0 0 .38-.32l.02-.02c.16-.08.33-.03.47-.13a3.3 3.3 0 0 0 1.32-1.85 3.3 3.3 0 0 0 .03-.08c.06-.08.16-.36.26-.5.03-.03.07-.03.1-.06.14-.12.17-.3.3-.48-.1.1.7-.32 1.62-1.45-.3.38-.36.4-.37.4l.1-.1c.07-.04.16-.1.34-.3l.1-.14.05-.03c.02-.03 0-.07.04-.1.06-.08.1-.12.2-.28.02 0 .03-.05.04-.06.68-.3.85-.53 1-.74a3.3 3.3 0 0 0 .22-.15c.02-.03.13-.1.15-.12l.05-.06a3.3 3.3 0 0 0 .1-.1c.05-.02.13 0 .18 0 .14-.07.12-.14.24-.2.1-.02.26.02.37-.02.16-.06.15-.15.3-.23a3.3 3.3 0 0 0 .16-.03c.08-.03.14-.02.2-.05a3.3 3.3 0 0 0 1.37-.83l.4-.4a3.3 3.3 0 0 0 1.45-.8 3.3 3.3 0 0 0 .65-.45c.72-.66 1.17-1.83 1.25-2.2 0-.03-.02.05-.02.04.08-.17.16-.26.22-.46-.1.17-.04.14-.26.37l-.26.2c.18-.24.42-.44.52-.62v-.15c.23-.27.5-.37.65-.74.08-.2 0-.26.04-.45a3.3 3.3 0 0 0 .1-2.14 3.3 3.3 0 0 0-.88-1.9 3.3 3.3 0 0 0-.8-.98c-.67-.56-1.47-.83-1.8-.92-.36-.1-.22-.1.1.08l.9.65c-.86-.9-2.74-1.3-3.57-1.12-.25.05-.05.02-.18.06-.03 0-.08-.04-.1-.04-.2 0-.18.05-.32.07-.15-.04-.16-.08-.36-.1-.06 0-.16.05-.23.05h-.17a3.3 3.3 0 0 0-2.53.64c.15-.1.18-.1-.16.07-.23.12-.65.48-1.03.8a3.3 3.3 0 0 0-1.26.95c-.45.1-.9.16-1.3.46a3.3 3.3 0 0 0-1 1.18 3.3 3.3 0 0 0-.85.6c-.1.12-.1.2-.2.32a3.3 3.3 0 0 0-1.08 1.14c-.06.1-.37.5-.74 1.05-.17.2-.38.47-.33.42.03-.04.1-.1.2-.17-.5.3-1.17.86-1.5 1.72-.04.1 0 .13-.02.23-.16.12-.46.24-.6.36l-.08.13-.13.05c-.1.06 0 .04-.1.1a3.3 3.3 0 0 0-.65.36c-.32.23-.52.74-.8 1.16l-.74.75.5-.4c-.06.13-.17.2-.2.32-.4.4-.73.8-1 1.33l.8-.77v.06c-.17.14-.33.32-.5.53a3.3 3.3 0 0 0-.38.33v.04c-.02 0-.04.03-.05.03v-.02a3.3 3.3 0 0 0-.05.07c-.02.02-.1.1-.12.1h-.02c-.85.34-.97.6-1.15.84a3.3 3.3 0 0 0-.12.1c-.03.04-.18.12-.2.15l-.06.08a3.3 3.3 0 0 0-.24.25c.32-.38.65-.5.9-.6-.4.18-1.06.44-1.52 1.02l.26-.3-1.24 1.25c-.04.03-.38.2-.25.16a3.3 3.3 0 0 0-.3.12c-.06-.04-.13-.03-.18-.07-.08-.17-.15-.4-.22-.5-.1-.13-.07-.05-.14-.14a3.3 3.3 0 0 0-.65-.92c-.2-.2-.2-.13-.4-.26l-.06-.12c-.38-.5-.46-.57-.2-.2a3.3 3.3 0 0 0-.16-.2l-.02-.08-.55-.73-.04.03c-.05-.05-.06-.13-.1-.18a3.3 3.3 0 0 0-.13-.1 3.3 3.3 0 0 0-.57-.36 3.3 3.3 0 0 0-.22-.26l-.62-.63a3.3 3.3 0 0 0-.24-.2 3.3 3.3 0 0 0-.2-.22l-.52-.53.35.42c-.35-.48-.9-.77-1.4-1.07-.08-.13-.27-.3-.4-.46-.2-.3-.35-.63-.63-.87-.4-.34-.44-.26-.67-.35l-.08-.14c-.25-.33-.5-.42-.83-.67l.26.48h-.02c-.12-.28-.2-.4-.3-.53l-.1-.1a3.3 3.3 0 0 0-.02-.02l.1.07c-.06-.06-.13-.22-.16-.26a3.3 3.3 0 0 0-.17-.36c-.16-.3-.56-.58-.92-.86a3.3 3.3 0 0 0-.38-.42c-.3-.37-.54-.66-.83-.83l-.07-.08a3.3 3.3 0 0 0-1.07-1.2c-.15-.18-.3-.4-.44-.52-.1-.08-.12-.06-.2-.13a3.3 3.3 0 0 0-1.66-2.17c-.05-.03-.64-.32-.95-.52-.16-.22-.15-.36-.35-.52a3.3 3.3 0 0 0-.3-.22 3.3 3.3 0 0 0-.4-.67c-.12-.17-.5-.34-.72-.53-.26-.38-.56-.73-.9-1-.75-.53-1.45-.66-1.84-.67-.26-.02-.32 0-.45 0-.27 0-.45-.1-.85-.03zm3.48 1.3h.08c.03.02.04.08.08.12l-.16-.12zm.76.65l.28.2c-.07-.05.03-.07.38.47l.06.17a3.3 3.3 0 0 0-.05-.02c-.2-.25-.38-.48-.6-.67l-.07-.13zm-6.72.1l-.2.22c0-.04.03-.07.17-.2l.04-.03zm8.34 1.67h.02c.52.46.9 1.45.86 1.3-.03-.08-.5-.75-.88-1.3zm-1.9.46c-.1.4-.2.66-.35.83a3.3 3.3 0 0 0 .36-.83zm-.5.25l-.02.03v-.03zm-7.1 1.02c-.02 0 0 .02-.02.03v-.03zM59.6 11.1c-.04-.24.05-.1.03.5 0 .07-.08.15-.1.23 0-.23.1-.64.08-.73zm-37.34 2.1c.14.25.17.37.18.46-.1-.03.4.3.77.6l.02.04c-.3-.2-.66-.6-.78-.64l.04.13-.07-.17c0-.03-.06-.14-.1-.25-.03-.06 0-.1-.03-.17zm-8.13 1c.05.07.1.06.17.12.04.04.03.1.07.12l-.24-.23zm27.13.48c-.22.2-.2.3-.35.55.1-.1.08-.28.16-.36l.2-.2zm-19.46.15l.1.02-.43.16-.22.1c.1-.04.23-.2.55-.27zm27.94.27l-.16.16.07-.1.1-.06zm-25.9.07v0zm.36.34c.07.06.2.12.26.17l.16.12c.1.12.08.1.14.2-.02-.05-.36-.3-.56-.5zm.44.28c.2.2.28.36.28.36s-.1-.1-.12-.1c-.02-.06-.12-.18-.16-.26zm21.36.1c-.05.05-.05.1-.1.15-.06.1-.14.12-.2.22 0 .03 0 .06-.02.08-.13.12-.33.2-.42.32l.74-.76zm-.42.62s0 .02-.02.03c-.02 0-.03.02-.05.03 0 0 0-.02.02-.02.02-.03.04-.02.06-.04zm.73 2.06c-.02.07-.22.33-.4.62 0 0 0-.02.02-.03.1-.22.35-.5.4-.6zm-32.76.1l.1.03.03.08-.13-.1zm24.2.16c-.1.04-.16.18-.23.24v-.04l.23-.2zm-11.6.24c.03 0 .14.04.18.03l-.4.12c-.2.08-.26.1-.33.15.1-.05.2-.22.54-.3zm1.73.08l.07.03a3.3 3.3 0 0 0-.17-.02h-.04c.06 0 .08-.02.14 0zm.2.02l.23.08c-.04-.02-.06 0-.1-.02-.07-.02-.05-.04-.13-.06zm-14.33.08h.02v.05c0-.03 0-.04-.02-.06zm12.53.1a3.3 3.3 0 0 0-.05.02h.02s.02 0 .03-.02zm-.78.43a3.3 3.3 0 0 0-.13.1l.06-.06c.04-.02.03 0 .06-.03zm-.4.34a3.3 3.3 0 0 0-.15.17l.04-.06.1-.1zm11.38.02l-.04.1c-.02.03 0 .04-.03.06.02-.1 0-.03.04-.12l.04-.04zm-12.04.95a3.3 3.3 0 0 0-.03.06v-.02l.04-.03zm24.73.4c.02-.08-.1.2-.1.24l-.06.04c.04-.08.16-.22.17-.27zm-.2.44c-.08.2-.04.2-.2.44l-.4.45c.22-.33.37-.56.5-.84.03 0 .06-.04.1-.05zm-18.28.65c.04.02.05 0 .1 0 .02.02 0 .04.03.05v.1l-.13-.07v-.08zm2.04 1.5c.06.04 0 0 .07.03l.05.03.02.03-.1-.04-.03-.04zm8.74.33l-.7.67c.07-.05.1-.15.16-.2.22-.2.34-.2.54-.47zm-10.75.4l-.02.04v-.02c.02 0 .02 0 .03-.02zm-.73.55l.16.02c-.24.22-.48.3-.63.54.16-.26.42-.52.47-.57zm4.8.6h.03c-.1-.15-.07-.18.05.15a3.3 3.3 0 0 0-.07-.16zm-13.4.3c.04-.02.05 0 .1 0h-.3.2zm17.42.24l-.12.1.04-.05c.02 0 .03-.02.05-.03a3.3 3.3 0 0 0 .02-.03zm-16.76 1.37c.04.1.16.2.22.3-.02-.03-.12-.07-.14-.1-.06-.12-.04-.12-.08-.2zm11.4.16c-.02.03-.1.1-.12.1l-.1.1.15-.16c.02-.03.02 0 .06-.04zm4.2 1.25c.02.02 0 .02.03.03h-.03v-.03zm-12.1.4v.02h-.03a3.3 3.3 0 0 0 .03 0zm-1.5 1.98h.08c-.03.08-.08.15-.1.23H24c.03-.1 0-.1.03-.2 0-.02 0-.02.02-.03zm1.26.08a3.3 3.3 0 0 0 .03.03c.06.1.14.16.2.25l.13.25-.3-.33c-.07-.12 0-.08-.06-.2zm-2.84.44c-.13.06-.25.16-.38.24l.23-.18c.1-.07.06 0 .15-.06zm4.33 1.26a3.3 3.3 0 0 0 .06.02c-.26-.12-.22-.12-.05 0v-.02zm-6.12.8v.04l-.04.06.04-.1zm-.05.33a3.3 3.3 0 0 0-.02.1l.03-.1zm21.55.4l.12.04.04.05-.13-.06h-.02v-.03zm-4.5 1l.03.02v-.02zm5.72.1l.04.02.2.2c-.04-.06-.18-.13-.24-.2zm-22.85.1l.13.4c.07.2.1.24.13.3-.03-.1-.18-.3-.25-.7zm.28.1a3.3 3.3 0 0 0 .02.08l-.02-.03v-.03zm12.87.54l-.37.32c-.1.06-.06 0-.16.05a3.3 3.3 0 0 0 0-.02c.12-.07.2-.17.3-.25l.23-.1zm-12.42.26a3.3 3.3 0 0 0 .16.2l-.13-.14c-.02-.05 0-.04-.02-.07zm14.6.2l.05.04.05.06a3.3 3.3 0 0 0 .02.05l-.12-.16zm-14.28.16a3.3 3.3 0 0 0 .17.15l-.04-.03-.13-.13zm4.78 0l-.03.02a3.3 3.3 0 0 0 .03-.03zm-8.77.14l-.1.1c-.05.03-.17.13-.25.16.2-.2.36-.27.36-.26zm-.14.16c-.05.02-.3.36-.5.57.06-.1.12-.22.17-.28l.12-.16c.12-.1.1-.08.2-.14zm-.8.9v.02h-.03.03zm-.9.64c-.2.3-.58.66-.64.77l.13-.03-.15.07-.26.13c-.06.02-.1 0-.17.02.25-.15.37-.18.45-.2 0 .08.3-.38.6-.75h.04zm21.65.08c.06.07.16.1.22.15.2.23.2.35.46.55l-.67-.7zm9.83.13c.1.07.28.07.36.15l.18.2c-.2-.22-.3-.2-.55-.35zm-17.56.7c-.05.02-.08.12-.13.14-.12.07-.13.04-.23.1.12-.06.25-.2.37-.26zm-13.36.42l.16.4.1.24c-.05-.1-.18-.28-.25-.63zm11.2 1.4l-.02.07v-.08zm18.3 1.83l.76.73c-.04-.05-.1-.06-.15-.1-.07-.06-.1-.13-.2-.2h-.07c-.12-.14-.18-.33-.32-.43zm.1.25h.03c.02.03 0 .05.03.07h-.02c0-.03-.02-.05-.03-.07zm-2.6.4c.23.12.5.35.6.4-.07-.04-.32-.24-.6-.4zM9.9 45c-.1.03-.76.5-1.3.88v-.02c.46-.52 1.44-.9 1.3-.86zm-2.23 1.77a3.3 3.3 0 0 0-.04.07c-.34.25-.73.5-.92.82l.36-.47c-.07.07-.08-.03.45-.37l.17-.06zm32 .15c.3.2.55.37.82.5 0 .03.03.06.04.08-.2-.07-.2-.04-.44-.2l-.43-.38zm1.05.63c.07.03.22.15.27.17.07.02-.2-.1-.25-.12 0-.02-.02-.03-.03-.05zm-24.82.54l-.25.24c.06-.06.06-.1.12-.18.04-.04.1-.03.13-.07zm31.3 0c.03.04.06.05.1.08l.07.1-.17-.17zm-35.3.25zm-5.64.06c-.05.06-.04.2-.1.26l.02-.14.08-.1zm14.5.3h-.04.03zm-.5.1l-.12.12v-.1c.05 0 .08-.03.1-.03zm-13.08.44a3.3 3.3 0 0 0-.02.02l.02-.02zm11.08 2.3c-.02.02-.02 0-.02 0h.02zm-.18.06s-.02 0-.03.02c-.64.3-1.3.4-1.1.38.03 0 .12-.05.15-.06.32-.02.65-.2.98-.34zm32.54 6.48c.22 0 .64.08.73.07.24-.05.1.04-.5.02-.07 0-.16-.08-.23-.1z" color="#000" font-family="sans-serif" white-space="normal" overflow="visible" solid-color="#000000" fill="#e51145" fill-rule="evenodd"/></svg>