<svg xmlns="http://www.w3.org/2000/svg" class="icon" fill-rule="evenodd" stroke-miterlimit="1.414" viewBox="0 0 16 16" clip-rule="evenodd" stroke-linejoin="round">
  <path class="box" id="path4" fill="#009640" d="M8 0C5.827 0 5.555.01 4.702.048 3.85.088 3.27.222 2.76.42c-.526.204-.973.478-1.417.923-.445.444-.72.89-.923 1.417-.198.51-.333 1.09-.372 1.942C.008 5.555 0 5.827 0 8s.01 2.445.048 3.298c.04.852.174 1.433.372 1.942.204.526.478.973.923 1.417.444.445.89.72 1.417.923.51.198 1.09.333 1.942.372.853.04 1.125.048 3.298.048s2.445-.01 3.298-.048c.852-.04 1.433-.174 1.942-.372.526-.204.973-.478 1.417-.923.445-.444.72-.89.923-1.417.198-.51.333-1.09.372-1.942.04-.853.048-1.125.048-3.298s-.01-2.445-.048-3.298c-.04-.852-.174-1.433-.372-1.942-.204-.526-.478-.973-.923-1.417-.444-.445-.89-.72-1.417-.923-.51-.198-1.09-.333-1.942-.372C10.445.008 10.173 0 8 0z"/>
  <g id="g4" fill="#fff" class="logo">
    <path id="path6" d="M13.17539024 4.25760187c.11818163.5936463-.5430327.86020052-.8236537 1.27356347-.72250414 1.06272753-1.7218907 1.88947877-2.59507314 2.81997408-.38152883.39999434-.71859934.8712764-1.1938844 1.16233148-.5364952.20400327-1.08609976-.16088846-1.4080758-.57140616-.50752807-.37246023-.77017144-.98024244-1.26139067-1.37287434-.6403038-.66495497-1.2254163-1.3818039-1.91379296-1.9988697-.21818568-.38198086-1.01500883-.74143548-.6512695-1.2391625.4982738-.18774614 1.07097236-.08228363 1.5995331-.13014588 1.35172793-.03845064 2.70209926-.1233073 4.0552525-.11456284 1.1994514.00084758 2.40035688-.01741462 3.59865572.0258079.20291253.02058062.40491842.06362552.593012.14397077M2.5222087 5.3936665c.51748967.60953355 1.13923558 1.1235969 1.6247262 1.76165226.27734463.4346656 1.1531244.86996312.7486823 1.4502799-.35099436.3787498-.89648238.50102305-1.22738943.9086587-.32276187.30607325-.63261876.83737784-1.1522282.71325557-.54916038-.35429213-.15908112-1.09685803-.305255-1.61902328-.09191086-.92128933.01697318-1.84525055.01182963-2.76663255.0162464-.18348144.09117654-.41204947.30100822-.4468169m11.5447244-.07761505c.11816033.68386-.01357165 1.37918115.0270856 2.06825098.0097527.62703967.0975216 1.25522502.02841465 1.88170422.26308345.46879493-.2146537 1.29834877-.71278713.76063372-.62999248-.4134341-1.19275178-.9203394-1.80602405-1.35379202-.54946515-.4005184.02447415-.83969325.32069373-1.15921795.39101984-.42057263.82090285-.80362477 1.20125646-1.23431848.43240995-.2014062.40607303-.92753178.939987-.96669476"/>
    <path id="path8" d="M10.5055697 9.15971384c.39271844.26120557.6659832.67142175 1.0937129.88500808.38996758.31588434.76499253.66671332 1.23087588.86836685.41040368.2035376.2918951.78758402-.18999548.66279755-.91455125.051239-1.82854958-.0735619-2.7431448-.0036266-.92836878.08042773-1.86108333-.03607522-2.7890661.04955617-1.17062332-.03035986-2.34008412.05046763-3.51046187.02872786-.37876793.09800446-.7187253-.26598885-.35090928-.56222217.3616137-.24971993.67601938-.5711218 1.04765805-.80895975.32588666-.23150786.67305112-.44836982 1.003957-.67735896.2364658-.22517296.56239718-.71850937.9116334-.38342663.2510871.24265077.53651614.44011102.80585714.6599299.29111464.28768125.62452144.60796355 1.06742523.583521.44736357-.00545367.92711528-.1183568 1.2477266-.44493553.3403482-.22579387.65409778-.48744865.91220012-.8035212.07092504-.06407637.1745178-.08945718.26459178-.05179602"/>
  </g>
</svg>
