<svg xmlns="http://www.w3.org/2000/svg" class="icon" fill-rule="evenodd" stroke-miterlimit="1.414" viewBox="0 0 16 16" clip-rule="evenodd" stroke-linejoin="round"><path d="M8 0C5.827 0 5.554.01 4.7.05 3.85.09 3.27.22 2.76.42c-.526.204-.972.48-1.416.924-.445.444-.72.89-.924 1.416C.222 3.27.088 3.85.05 4.7.01 5.555 0 5.828 0 8s.01 2.446.05 3.3c.04.85.172 1.43.37 1.94.204.526.48.972.924 1.416.444.445.89.72 1.416.924.51.198 1.09.332 1.94.37.854.04 1.127.05 3.3.05s2.446-.01 3.3-.05c.85-.04 1.43-.172 1.94-.37.526-.204.972-.48 1.416-.924.445-.444.72-.89.924-1.416.198-.51.332-1.09.37-1.94.04-.854.05-1.127.05-3.3s-.01-2.446-.05-3.3c-.04-.85-.172-1.43-.37-1.94-.204-.526-.48-.972-.924-1.416-.444-.445-.89-.72-1.416-.924-.51-.198-1.09-.332-1.94-.37C10.445.01 10.172 0 8 0zM6.062 4.248c.99 0 1.84.33 2.557.99l-1.036 1c-.405-.39-.91-.586-1.52-.586-.658 0-1.22.235-1.683.703-.463.47-.696 1.034-.696 1.694 0 .66.233 1.224.697 1.692.465.47 1.026.703 1.683.703.358 0 .68-.058.96-.174.282-.114.5-.26.66-.438.16-.178.284-.354.374-.525.09-.172.146-.336.166-.495h-2.16V7.505h3.6c.04.25.062.463.062.635 0 1.088-.337 1.978-1.01 2.67-.673.694-1.558 1.042-2.652 1.042-1.062 0-1.965-.373-2.708-1.116-.742-.742-1.113-1.638-1.113-2.687 0-1.05.37-1.946 1.113-2.69C4.098 4.62 5 4.25 6.063 4.25zm6 2.168h1.094v1.088h1.086v1.09h-1.086v1.09h-1.094v-1.09H10.97v-1.09h1.092V6.416z" fill="#dd5044"/></svg>