<svg xmlns="http://www.w3.org/2000/svg" fill-rule="evenodd" stroke-miterlimit="1.414" class="icon" viewBox="0 0 16 16" clip-rule="evenodd" stroke-linejoin="round">
  <path fill="#0077b5" d="M8 0C5.827 0 5.554.01 4.7.05 3.85.09 3.27.22 2.76.42c-.526.204-.972.48-1.416.924-.445.444-.72.89-.924 1.416C.222 3.27.088 3.85.05 4.7.01 5.555 0 5.828 0 8s.01 2.446.05 3.3c.04.85.172 1.43.37 1.94.204.526.48.972.924 1.416.444.445.89.72 1.416.924.51.198 1.09.332 1.94.37.854.04 1.127.05 3.3.05s2.446-.01 3.3-.05c.85-.04 1.43-.172 1.94-.37.526-.204.972-.48 1.416-.924.445-.444.72-.89.924-1.416.198-.51.332-1.09.37-1.94.04-.854.05-1.127.05-3.3s-.01-2.446-.05-3.3c-.04-.85-.172-1.43-.37-1.94-.204-.526-.48-.972-.924-1.416-.444-.445-.89-.72-1.416-.924-.51-.198-1.09-.332-1.94-.37C10.445.01 10.172 0 8 0zM3.46 2.268c.432 0 .778.126 1.038.378.26.253.395.573.402.96 0 .38-.134.696-.402.953-.268.255-.62.383-1.06.383h-.01c-.424 0-.768-.128-1.032-.384C2.133 4.3 2 3.984 2 3.604c0-.386.135-.706.406-.96.272-.25.624-.377 1.055-.377zm7.573 3.546c.892 0 1.61.294 2.153.88.542.59.814 1.454.814 2.6v4.438h-2.576V9.596c0-1.168-.43-1.752-1.293-1.752-.326 0-.602.09-.825.273-.223.182-.39.404-.502.664-.052.135-.078.342-.078.624v4.328H6.148c.023-4.67.023-7.25 0-7.74h2.577v1.1c.54-.85 1.31-1.278 2.308-1.278zm-8.877.178h2.576v7.74H2.156v-7.74z"/>
</svg>
