<svg xmlns="http://www.w3.org/2000/svg" class="icon" fill-rule="evenodd" stroke-miterlimit="1.414" viewBox="0 0 16 16" clip-rule="evenodd" stroke-linejoin="round">
  <path class="box" fill="#00bcf5" d="M8 0C5.827 0 5.555.01 4.702.048 3.85.088 3.27.222 2.76.42c-.526.204-.973.478-1.417.923-.445.444-.72.89-.923 1.417-.198.51-.333 1.09-.372 1.942C.008 5.555 0 5.827 0 8s.01 2.445.048 3.298c.04.852.174 1.433.372 1.942.204.526.478.973.923 1.417.444.445.89.72 1.417.923.51.198 1.09.333 1.942.372.853.04 1.125.048 3.298.048s2.445-.01 3.298-.048c.852-.04 1.433-.174 1.942-.372.526-.204.973-.478 1.417-.923.445-.444.72-.89.923-1.417.198-.51.333-1.09.372-1.942.04-.853.048-1.125.048-3.298s-.01-2.445-.048-3.298c-.04-.852-.174-1.433-.372-1.942-.204-.526-.478-.973-.923-1.417-.444-.445-.89-.72-1.417-.923-.51-.198-1.09-.333-1.942-.372C10.445.008 10.173 0 8 0z"/>
  <path class="logo" id="path4-3" fill="#fff" d="M14.311468 4.3622028c-.442223.1948782-.914428.3275453-1.412867.3875079.507433-.3050594.897939-.7870082 1.081574-1.3611493-.475203.2773266-1.002123.4797001-1.562773.5921299-.44822-.4797002-1.086821-.7795128-1.795878-.7795128-1.3581502 0-2.4599615 1.1018113-2.4599615 2.4584635 0 .1948782.022486.382261.06371.5621486-2.044722-.097439-3.8578388-1.0793254-5.0713304-2.5633979-.2128669.3605247-.332792.7802623-.332792 1.2374766 0 .854466.4347283 1.6062461 1.0943161 2.0477202-.4032479-.0127421-.7832604-.1236727-1.1145533-.3073079v.029981c0 1.1917552.8469706 2.187133 1.9735165 2.4134916-.2068707.055465-.4242348.085447-.6483447.085447-.1574017 0-.307308-.014991-.4572143-.043473.3148033.9773888 1.2217364 1.6886948 2.3010618 1.7089318-.8394753.659588-1.9038101 1.052342-3.0505933 1.052342-.1948782 0-.3897564-.01124-.5846346-.03373 1.094316.697064 2.3835103 1.104809 3.7776389 1.104809 4.5271698 0 7.0006238-3.7476577 7.0006238-6.9931293 0-.1049344 0-.2098688-.0075-.3148032.4797-.3447845.899438-.7795128 1.229232-1.2742037z"/>
</svg>
