<svg xmlns="http://www.w3.org/2000/svg" fill-rule="evenodd" stroke-miterlimit="1.414" class="icon" viewBox="0 0 16 16" clip-rule="evenodd" stroke-linejoin="round">
  <path fill="#00bcf5" d="M8 0C5.827 0 5.555.01 4.702.048 3.85.088 3.27.222 2.76.42c-.526.204-.973.478-1.417.923-.445.444-.72.89-.923 1.417-.198.51-.333 1.09-.372 1.942C.008 5.555 0 5.827 0 8s.01 2.445.048 3.298c.04.852.174 1.433.372 1.942.204.526.478.973.923 1.417.444.445.89.72 1.417.923.51.198 1.09.333 1.942.372.853.04 1.125.048 3.298.048s2.445-.01 3.298-.048c.852-.04 1.433-.174 1.942-.372.526-.204.973-.478 1.417-.923.445-.444.72-.89.923-1.417.198-.51.333-1.09.372-1.942.04-.853.048-1.125.048-3.298s-.01-2.445-.048-3.298c-.04-.852-.174-1.433-.372-1.942-.204-.526-.478-.973-.923-1.417-.444-.445-.89-.72-1.417-.923-.51-.198-1.09-.333-1.942-.372C10.445.008 10.173 0 8 0z" class="box"/>
  <path fill="#fff" d="M14.31 4.362c-.44.195-.913.328-1.41.388.506-.305.897-.787 1.08-1.36-.475.276-1.002.478-1.563.59-.448-.48-1.086-.78-1.795-.78-1.36 0-2.46 1.103-2.46 2.46 0 .195.022.382.063.562-2.044-.098-3.858-1.08-5.07-2.564-.214.36-.334.78-.334 1.238 0 .854.436 1.606 1.095 2.048-.403-.013-.783-.124-1.114-.308v.03c0 1.192.848 2.187 1.974 2.414-.206.055-.424.085-.648.085-.157 0-.307-.015-.457-.043.314.977 1.22 1.688 2.3 1.71-.84.658-1.904 1.05-3.05 1.05-.196 0-.39-.01-.585-.033 1.094.696 2.383 1.104 3.777 1.104 4.528 0 7-3.748 7-6.993 0-.104 0-.21-.007-.314.48-.345.9-.78 1.23-1.274z" class="logo"/>
</svg>
