<svg xmlns="http://www.w3.org/2000/svg" viewBox="0 0 28 32">
  <path fill="#E51145" fill-rule="evenodd" d="M0 5.32q.08-2.4 1.28-3.84 0 1.04-.48 1.44-.48.4-.48 1.28-.08.4-.16.72 0 .24-.16.4zm3.68-3.28Q4.16.52 5.52.12q0 .64-.4 1.68-.4.96-.4 1.44L6.48.68Q7.12.36 7.52.36q.56 0 1.68.72 1.12.64 1.84.64.4 0 .88-.24.72.4.72 1.2 0 .32-.08.8-.08.4-.4 1.04-.24.72-.24 1.28.08.56-.16.8Q9.52 9 8.88 12.28q-.56 3.28 0 6.56.64 3.2 2.16 6T14.56 29q.24.24-.32.08-.56-.16-1.44-.32-.8-.24-1.76-.32-.88-.16-1.28.08-.24.16 0 .64t.64 1.04q.4.48.8 1.04.4.48.48.56-2.8-1.84-5.12-5.12-2.32-3.36-3.52-7.52-.24-.64-.32-1.76v-2.24q0-1.12-.08-2.08 0-.96-.08-1.36-.16-.4-.4.48-.16.88-.4 2-.24 1.12-.4 2.08-.16.88-.16.48-.08-3.36.32-6.4Q2 7.24 2.8 4.68l.88-2.64zm9.6 3.28q.08-2.4 1.28-3.84 0 1.04-.48 1.44-.48.4-.48 1.28-.08.8-.32 1.12zm3.6-3.28Q17.52.44 18.8.12q0 .64-.48 1.68-.4.96-.32 1.44L19.76.68Q20.4.36 20.8.36q.24 0 .72.24.48.16.96.48l.96.48q.48.16.8.16.32 0 .96-.24.72.4.72 1.2 0 .56-.48 1.84-.24.72-.24 1.28.08.56-.16.8-2.24 2.4-2.88 5.68-.56 3.28 0 6.56.64 3.2 2.16 6T27.84 29q.16.16-.16 0-.32-.24-.88-.48-.48-.32-1.04-.48-.56-.24-.88-.24-.32 0-.4.32-.08.32-.08.72v.8q0 .32-.16.48-.16.16.16.88.4.64.56.8-4.72-3.04-7.12-7.12-2.32-4.16-2.48-7.76v-.72q0-.64.16-1.76t.32-2.32q.24-1.2.4-2.32.24-1.12.32-1.76l-1.92 3.68q.48-4 1.44-7.04l.8-2.64z" />
</svg>
