<svg xmlns="http://www.w3.org/2000/svg" viewBox="0 0 28 32">
  <path fill="#e51145" fill-rule="evenodd" d="M11.92 4.88q.88 2.56 1.28 5.68.48 3.04.32 6.4-.08 1.76-.88 3.76-.72 2-2.08 4t-3.28 3.92Q5.44 30.48 3.12 32q.16-.4.16-1.2.08-.88-.64-1.28-.4-.16-.88-.16-.48-.08-.96 0H.16q-.16 0 0-.16.96-.64 1.84-2 .96-1.36 1.68-3.04.8-1.76 1.44-3.68.64-1.92 1.04-3.76.32-1.36.4-2.64.08-1.28-.56-3.28l-.08 3.52-.64 2.4q-.08-.88-.16-2.24-.08-1.36-.32-2.8-.16-1.44-.64-2.72-.4-1.28-1.2-2.16-.24-.24-.16-.8.08-.56-.24-1.28-.48-1.28-.48-1.84 0-.8.8-1.2.48.24.88.24.16 0 .72.8.64.72 1.12 1.12.48.4.56.08.16-.4-.56-2.72.48-.24.88-.4.48-.24.8-.24.24 0 .48.08t.56.24L10 3.44q.08-.48-.32-1.44-.4-1.04-.4-1.68 1.36.4 1.84 1.92l.8 2.64zm2.88.64q-.32-.24-.4-1.12 0-.88-.48-1.28t-.48-1.44q1.28 1.36 1.36 3.84zm10.4-.64q.88 2.56 1.28 5.68.48 3.04.32 6.4-.16 3.6-2.96 7.84-2.8 4.16-7.52 7.2.32-.4-.64-.96l1.68-2.72q-.4-.24-1.2 0-.8.16-1.52.48-.64.24-1.12.48-.4.16-.08-.08.64-.4 1.04-.56.48-.16.72-.4.32-.24.64-.64t.72-1.36q.88-.72 1.68-2.32.8-1.68 1.44-3.44.64-1.84.96-3.44.32-1.6.16-2.16-.08-.56-.72.32-.64.8-1.92 3.76.24-2.72.08-4.16-.08-1.52-.4-2.56-.32-1.12-.72-2.24-.4-1.12-.88-3.2-.08-.4-.16-.88 0-.48-.24-1.2-.48-1.28-.48-1.84 0-.8.8-1.2.48.24.88.24.16 0 .56.56t.8 1.2q.48.64.88 1.2.48.48.64.4.24-.08.08-.96-.16-.96-.88-3.2-.16-.48.48-.48.72-.08.96-.08t.48.08q.24.08.56.24l1.68 2.56q.08-.48-.32-1.44-.4-1.04-.4-1.68 1.36.4 1.84 1.92l.8 2.64zm2.8.64q-.24-.32-.32-1.12 0-.88-.48-1.28t-.48-1.44Q28 3.12 28 5.52z" />
</svg>
