<svg xmlns="http://www.w3.org/2000/svg" viewBox="0 0 67.274742 99.65184"><path d="M13.3 0h1.3c0 .3.8 0 .8.7h1.2c0 .8 1.6.4 1.7 1.2h2.5c.2 1.4 2.8 1 3.2 2.3 1.3-.3.8 1 2 .8.3.6 1 .8 1.7 1 0 .5.5 1 1 1s.4.6.5 1c.4 0 .4 0 .4.4 1-.2.8.7 2 .4.2.4.5.7 1.2.7 0 .4.5.3.8.4 0 .3.2.4.4.4.6.2.7.7 1.3.8.2.3.5.3.8.4h.5s.3 1.3 1.5 1c.5.8 1.3 1.3 2.5 1.5 0 .5.5.4.8.5 0 .4.2.4.4.4 0 .3.5.2 1 .3-.2.4 0 .4.3.4.7.6 2 .6 2.4 1.7.7.6 2 .6 2.4 1.6 1 .5 1.6 1.2 3 1.3.4 1.3 1.7 1.7 2.7 2.5.2.8 1.5.3 1.4 1.2.4.3 1 .7 1 1.3 1.3 0 1.3 1 2.5.8.2 1 1.2 1 1.3 1.8.3.2.7.4.8.8.6 0 .8 0 1 .5.5 0 .3-1 .3-1.6-.5 0-.4-.8-1-.8.4-.7.8 0 1.3 0 .2.4.4.7 1 .8 0 .6.6.7.7 1.2.3 1.3-1.2.8-.8 2 0 .2-.2.8 0 1 0 0 .3-.2.4 0l.4.7c.2.3.5.2.8.4 0 0 0 .6.4.4 0 1.3.4 2 .8 2.6h.4v.4s.4-.2.4 0v.3c.2.3.4.5.4.8.3 1.5-.4 1.7-.4 2.7-.4 0-.3.5-.4.8 0 .4-.4.4-.4.8 0 2 .7 3.2.4 5.4-.4 0-.3.5-.4.8-.3 0-.4.2-.4.4-.4.2-1 .3-1.6.3 0 2.2-.7 3.7-.4 6.2 0 1.5-1.4 2-1.3 3.7-.6.3-1 .7-1.2 1.3-.7 0-.2 1.3-1 1.2v.8h-.5c-.3.2-.4.7-.5.8-.3.4-.6.4-1 .6 0 0 0 .4-.3.3 0 0 .2.7 0 .8h-.4v1l-.8.3v.8c-.4 0-.3.6-.4 1-.3 0-.3 0-.3.4-.3.4-.5 1-.4 1.7-1 .8-2 1.7-2.5 3-1.3.5-2.2 1.3-3 2.4-1 .6-2.2 1-2.3 2.5-1 0-1.3.5-2 .7 0 .8-1.4.3-1.3 1.2-.8 0-.5 1-1.6 1-.2.4-.6 1-1.2 1-.5.4-1.5.4-1.6 1.2-.8 0-.5 1-1.7.8-.2 1.3-2 1.2-2.3 2.5-1 0-1.2 1-2.4 1-1 .2-1 1.3-2 1.6-.6 0-.7.8-1.2 1-.3 0-.7.2-1 .7-.5 0-1 .3-1 .8-.6 0-1.2 0-1.2.4-1.2-.3-1 1.2-2.4.7-.7.4-1.2 1-2 1.3-.8.3-1.3 1-1.7 1.6-1.4 0-1.2 1.2-2 1.3-.2 1-1.2 1-1.4 1.6-2-.2-2.3 1.4-3.6 2-1.2.3-1-.8-1.7-.8-1-.2-1 .8-2 .4 0-1-1.6-.6-1.7-1.6-1.2-.3-1.2.7-2.4.4 0-.5 0-.7-.5-.8-.4 0-.4-.2-.4-.4 0-.7.4-.7.5-1.3-1-.2-1 .2-1.7.3-.2.8-.6 0-1 0 0-.7-.6-.8-.5-1.6.5 0 .3-1 .4-1.6-.2-.4-1-.3-1.3-.3-.4 0-.4-.5-1-.5.2-.6 0-1.5.6-1.6-.4-.3-.3-1-1-1.2.3-.6 1-.7 1-1.2-.2-.7.3-.8.4-1.3-.2-1.5 0-2.4.4-3.4s-.6-1-.3-2.3c0-1.7.8-2.5.8-4 .8-.4 1-1.2 1.2-2.2A3.7 3.7 0 0 0 5 73 3.7 3.7 0 0 0 7 71.2c.6 0 .7-.4 1.2-.5 0-.4.8-.2.8-.8.6-.4 1.6-.4 1.7-1.2.8-.2 1.3-1 2-1.2.4-.5.6-1.2 1.7-1.2 0-1.2.8-1.6 1.2-2.4.8-.4 1.6-1 2.5-1.2.2-1 1.5-1 2.4-1.3 0-1.2 1.7-.8 2-1.7.4-.4 1.2-.3 1.3-.8.3-.3.7-.5 1.2-.4 1 0 .7-1.4 2-1.2 0-.8 1-.8 1.2-1.6.5 0 .7 0 .8-.4 1-.3 2.2-.4 3-.8 1 0 .4-1.2 1.2-1.3 0-.4.5-.3.8-.4 0-.4.2-.5.4-.5.3-1.2 1.8-1 1.7-2.6v-1.3c0-1-.4-1.6-1.5-1.6 0-1-1-1-2-.7 0-1-1.6-.4-1.2-1.7-.6-.3-1.6-.3-1.7-1-1 0-1-1-2-.5-.2-.5-.7-1-1.2-1.2-.6 0-.7-.7-1.3-.8 0-.2-.5-.2-.7-.4l-.4-.8h-1.2v-.4H22c-.3-.6-.7-1-1.3-1.2-.3-.5-.6-1-1.3-1-.4-.8-1.2-1.3-2.5-1.5-.3-.5-.7-1-1.3-1-.3-.5-1-.4-1.2-1-1-.4-2-1-2.5-2-1 .3-.8-.8-1.6-.8-.6-.3-.7-.8-1.3-1-.2-.3-1-.2-1-1-.6 0-.7-.5-1.3-.6v-2c0-.4-.5-.3-.8-.4 0-.5 0-.8-.5-1 0-.3 0-.6-.5-.7-.3 0-.3 0-.4-.4-1-.4-1-2-2-2 .2-2-1-2.7-1.8-3.8.2-1 .5-1.7 1-2.5v-5c.2.2.3 0 .3-.3-.2-1 1-.8 1.3-1.2.2-.6.6-1 1.2-1.3 0-.7 0-1-.5-1.3.2-.3.5-.7.4-1.2 1 0 .6-1.6 1.2-2 2.3 0 5 .3 4.5-2.5 1.7-.4 1.3 1.2 3 .8v-1z" fill="#e51145" fill-rule="evenodd"/></svg>